<?xml version="1.0" encoding="UTF-8" standalone="no"?>
<!DOCTYPE svg PUBLIC "-//W3C//DTD SVG 1.1//EN"
 "http://www.w3.org/Graphics/SVG/1.1/DTD/svg11.dtd">
<!-- Generated by graphviz version 2.43.0 (0)
 -->
<!-- Title: pastafarianism Pages: 1 -->
<svg width="330pt" height="136pt"
 viewBox="0.00 0.00 330.32 136.00" xmlns="http://www.w3.org/2000/svg" xmlns:xlink="http://www.w3.org/1999/xlink">
<g id="graph0" class="graph" transform="scale(1 1) rotate(0) translate(4 132)">
<title>pastafarianism</title>
<polygon fill="white" stroke="transparent" points="-4,4 -4,-132 326.32,-132 326.32,4 -4,4"/>
<!-- LCD&#45;RIG -->
<g id="node1" class="node">
<title>LCD&#45;RIG</title>
<polygon fill="gold" stroke="black" points="297.04,-128 99.28,-128 48.4,-72 246.17,-72 297.04,-128"/>
<text text-anchor="middle" x="172.72" y="-102.8" font-family="Times,serif" font-size="9.00">⚡ LCD&#45;RIG</text>
<text text-anchor="middle" x="172.72" y="-92.8" font-family="Times,serif" font-size="9.00">SuccessOnSelected(0)</text>
</g>
<!-- visualization -->
<g id="node2" class="node">
<title>visualization</title>
<ellipse fill="gray" stroke="black" cx="42.72" cy="-18" rx="42.95" ry="18"/>
<text text-anchor="middle" x="42.72" y="-15.8" font-family="Times,serif" font-size="9.00">visualization</text>
</g>
<!-- LCD&#45;RIG&#45;&gt;visualization -->
<g id="edge1" class="edge">
<title>LCD&#45;RIG&#45;&gt;visualization</title>
<path fill="none" stroke="black" d="M128.71,-71.92C110.94,-60.98 90.82,-48.6 74.51,-38.56"/>
<polygon fill="black" stroke="black" points="76.23,-35.51 65.88,-33.25 72.56,-41.47 76.23,-35.51"/>
</g>
<!-- RIG001 -->
<g id="node3" class="node">
<title>RIG001</title>
<ellipse fill="gray" stroke="black" cx="133.72" cy="-18" rx="30.7" ry="18"/>
<text text-anchor="middle" x="133.72" y="-15.8" font-family="Times,serif" font-size="9.00">RIG001</text>
</g>
<!-- LCD&#45;RIG&#45;&gt;RIG001 -->
<g id="edge2" class="edge">
<title>LCD&#45;RIG&#45;&gt;RIG001</title>
<path fill="none" stroke="black" d="M159.52,-71.92C155.28,-63.22 150.6,-53.61 146.4,-45"/>
<polygon fill="black" stroke="black" points="149.44,-43.25 141.91,-35.79 143.15,-46.32 149.44,-43.25"/>
</g>
<!-- RIG002 -->
<g id="node4" class="node">
<title>RIG002</title>
<ellipse fill="gray" stroke="black" cx="212.72" cy="-18" rx="30.7" ry="18"/>
<text text-anchor="middle" x="212.72" y="-15.8" font-family="Times,serif" font-size="9.00">RIG002</text>
</g>
<!-- LCD&#45;RIG&#45;&gt;RIG002 -->
<g id="edge3" class="edge">
<title>LCD&#45;RIG&#45;&gt;RIG002</title>
<path fill="none" stroke="black" d="M186.27,-71.92C190.61,-63.22 195.42,-53.61 199.72,-45"/>
<polygon fill="black" stroke="black" points="202.98,-46.3 204.33,-35.79 196.72,-43.17 202.98,-46.3"/>
</g>
<!-- RIG003 -->
<g id="node5" class="node">
<title>RIG003</title>
<ellipse fill="gray" stroke="black" cx="291.72" cy="-18" rx="30.7" ry="18"/>
<text text-anchor="middle" x="291.72" y="-15.8" font-family="Times,serif" font-size="9.00">RIG003</text>
</g>
<!-- LCD&#45;RIG&#45;&gt;RIG003 -->
<g id="edge4" class="edge">
<title>LCD&#45;RIG&#45;&gt;RIG003</title>
<path fill="none" stroke="black" d="M213.01,-71.92C229.7,-60.7 248.64,-47.97 263.76,-37.8"/>
<polygon fill="black" stroke="black" points="265.83,-40.63 272.17,-32.14 261.92,-34.82 265.83,-40.63"/>
</g>
</g>
</svg>
