<?xml version="1.0" encoding="UTF-8" standalone="no"?>
<!DOCTYPE svg PUBLIC "-//W3C//DTD SVG 1.1//EN"
 "http://www.w3.org/Graphics/SVG/1.1/DTD/svg11.dtd">
<!-- Generated by graphviz version 2.43.0 (0)
 -->
<!-- Title: pastafarianism Pages: 1 -->
<svg width="461pt" height="260pt"
 viewBox="0.00 0.00 461.45 260.00" xmlns="http://www.w3.org/2000/svg" xmlns:xlink="http://www.w3.org/1999/xlink">
<g id="graph0" class="graph" transform="scale(1 1) rotate(0) translate(4 256)">
<title>pastafarianism</title>
<polygon fill="white" stroke="transparent" points="-4,4 -4,-256 457.45,-256 457.45,4 -4,4"/>
<!-- RIG001 -->
<g id="node1" class="node">
<title>RIG001</title>
<polygon fill="orange" stroke="black" points="301.1,-252 236.1,-252 236.1,-216 301.1,-216 301.1,-252"/>
<text text-anchor="middle" x="268.6" y="-231.8" font-family="Times,serif" font-size="9.00">Ⓜ RIG001</text>
</g>
<!-- PlannerSelector -->
<g id="node2" class="node">
<title>PlannerSelector</title>
<polygon fill="cyan" stroke="black" points="193.83,-154.54 193.83,-169.46 156.21,-180 102.99,-180 65.37,-169.46 65.37,-154.54 102.99,-144 156.21,-144 193.83,-154.54"/>
<text text-anchor="middle" x="129.6" y="-159.8" font-family="Times,serif" font-size="9.00">Ⓜ PlannerSelector</text>
</g>
<!-- RIG001&#45;&gt;PlannerSelector -->
<g id="edge1" class="edge">
<title>RIG001&#45;&gt;PlannerSelector</title>
<path fill="none" stroke="black" d="M236.01,-216.59C216.3,-206.66 191.01,-193.92 170.03,-183.36"/>
<polygon fill="black" stroke="black" points="171.53,-180.2 161.03,-178.83 168.39,-186.45 171.53,-180.2"/>
</g>
<!-- ExplorerSequence -->
<g id="node5" class="node">
<title>ExplorerSequence</title>
<polygon fill="orange" stroke="black" points="325.6,-180 211.6,-180 211.6,-144 325.6,-144 325.6,-180"/>
<text text-anchor="middle" x="268.6" y="-159.8" font-family="Times,serif" font-size="9.00">Ⓜ ExplorerSequence</text>
</g>
<!-- RIG001&#45;&gt;ExplorerSequence -->
<g id="edge4" class="edge">
<title>RIG001&#45;&gt;ExplorerSequence</title>
<path fill="none" stroke="black" d="M268.6,-215.7C268.6,-207.98 268.6,-198.71 268.6,-190.11"/>
<polygon fill="black" stroke="black" points="272.1,-190.1 268.6,-180.1 265.1,-190.1 272.1,-190.1"/>
</g>
<!-- RIG001/learner -->
<g id="node10" class="node">
<title>RIG001/learner</title>
<ellipse fill="gray" stroke="black" cx="394.6" cy="-162" rx="51.27" ry="18"/>
<text text-anchor="middle" x="394.6" y="-159.8" font-family="Times,serif" font-size="9.00">RIG001/learner</text>
</g>
<!-- RIG001&#45;&gt;RIG001/learner -->
<g id="edge9" class="edge">
<title>RIG001&#45;&gt;RIG001/learner</title>
<path fill="none" stroke="black" d="M299.42,-215.88C317.58,-205.79 340.61,-192.99 359.47,-182.52"/>
<polygon fill="black" stroke="black" points="361.31,-185.5 368.35,-177.58 357.91,-179.38 361.31,-185.5"/>
</g>
<!-- hasGoal -->
<g id="node3" class="node">
<title>hasGoal</title>
<ellipse fill="gray" stroke="black" cx="30.6" cy="-90" rx="30.7" ry="18"/>
<text text-anchor="middle" x="30.6" y="-87.8" font-family="Times,serif" font-size="9.00">hasGoal</text>
</g>
<!-- PlannerSelector&#45;&gt;hasGoal -->
<g id="edge2" class="edge">
<title>PlannerSelector&#45;&gt;hasGoal</title>
<path fill="none" stroke="black" d="M105.38,-143.88C91.03,-133.73 72.79,-120.83 57.92,-110.32"/>
<polygon fill="black" stroke="black" points="59.8,-107.36 49.61,-104.44 55.76,-113.07 59.8,-107.36"/>
</g>
<!-- RIG001/planner -->
<g id="node4" class="node">
<title>RIG001/planner</title>
<ellipse fill="gray" stroke="black" cx="132.6" cy="-90" rx="53.23" ry="18"/>
<text text-anchor="middle" x="132.6" y="-87.8" font-family="Times,serif" font-size="9.00">RIG001/planner</text>
</g>
<!-- PlannerSelector&#45;&gt;RIG001/planner -->
<g id="edge3" class="edge">
<title>PlannerSelector&#45;&gt;RIG001/planner</title>
<path fill="none" stroke="black" d="M130.34,-143.7C130.67,-135.98 131.07,-126.71 131.44,-118.11"/>
<polygon fill="black" stroke="black" points="134.94,-118.25 131.87,-108.1 127.94,-117.95 134.94,-118.25"/>
</g>
<!-- NeighborSequence -->
<g id="node6" class="node">
<title>NeighborSequence</title>
<polygon fill="orange" stroke="black" points="325.6,-108 207.6,-108 207.6,-72 325.6,-72 325.6,-108"/>
<text text-anchor="middle" x="266.6" y="-87.8" font-family="Times,serif" font-size="9.00">Ⓜ NeighborSequence</text>
</g>
<!-- ExplorerSequence&#45;&gt;NeighborSequence -->
<g id="edge5" class="edge">
<title>ExplorerSequence&#45;&gt;NeighborSequence</title>
<path fill="none" stroke="black" d="M268.11,-143.7C267.88,-135.98 267.62,-126.71 267.37,-118.11"/>
<polygon fill="black" stroke="black" points="270.87,-118 267.09,-108.1 263.88,-118.2 270.87,-118"/>
</g>
<!-- RIG001/explorer -->
<g id="node9" class="node">
<title>RIG001/explorer</title>
<ellipse fill="gray" stroke="black" cx="398.6" cy="-90" rx="54.7" ry="18"/>
<text text-anchor="middle" x="398.6" y="-87.8" font-family="Times,serif" font-size="9.00">RIG001/explorer</text>
</g>
<!-- ExplorerSequence&#45;&gt;RIG001/explorer -->
<g id="edge8" class="edge">
<title>ExplorerSequence&#45;&gt;RIG001/explorer</title>
<path fill="none" stroke="black" d="M300.4,-143.88C319.09,-133.81 342.78,-121.05 362.22,-110.59"/>
<polygon fill="black" stroke="black" points="363.94,-113.64 371.09,-105.81 360.63,-107.47 363.94,-113.64"/>
</g>
<!-- RIG001/communicator -->
<g id="node7" class="node">
<title>RIG001/communicator</title>
<ellipse fill="gray" stroke="black" cx="184.6" cy="-18" rx="70.37" ry="18"/>
<text text-anchor="middle" x="184.6" y="-15.8" font-family="Times,serif" font-size="9.00">RIG001/communicator</text>
</g>
<!-- NeighborSequence&#45;&gt;RIG001/communicator -->
<g id="edge6" class="edge">
<title>NeighborSequence&#45;&gt;RIG001/communicator</title>
<path fill="none" stroke="black" d="M246.33,-71.7C235.87,-62.77 222.97,-51.76 211.68,-42.11"/>
<polygon fill="black" stroke="black" points="213.67,-39.21 203.79,-35.38 209.12,-44.54 213.67,-39.21"/>
</g>
<!-- RIG001/conflict_handler -->
<g id="node8" class="node">
<title>RIG001/conflict_handler</title>
<ellipse fill="gray" stroke="black" cx="348.6" cy="-18" rx="75.77" ry="18"/>
<text text-anchor="middle" x="348.6" y="-15.8" font-family="Times,serif" font-size="9.00">RIG001/conflict_handler</text>
</g>
<!-- NeighborSequence&#45;&gt;RIG001/conflict_handler -->
<g id="edge7" class="edge">
<title>NeighborSequence&#45;&gt;RIG001/conflict_handler</title>
<path fill="none" stroke="black" d="M286.87,-71.7C297.25,-62.84 310.04,-51.92 321.27,-42.33"/>
<polygon fill="black" stroke="black" points="323.79,-44.78 329.13,-35.62 319.25,-39.45 323.79,-44.78"/>
</g>
</g>
</svg>
